# xmcd CD database file
#
# Track frame offsets:
#	150
#	18922
#	32744
#	49543
#	66543
#	84507
#	102680
#	117936
#	133291
#	149863
#	167307
#	185135
#
# Disc length: 2672 seconds
#
# Revision: 0
# Processed by: cddbd v1.5.1PL2 Copyright (c) Steve Scherf et al.
# Submitted via: CDex 1.51
#
DISCID=b30a6e0c
DTITLE=Various Artist - cafe lounge X'MAS EDITION
DYEAR=2005
DGENRE=Electronic
TTITLE0=Santa Claus Is Coming To Town
TTITLE1=We Wish You A Merry Chiristmas
TTITLE2=Have Yourself A Merry Chiristmas
TTITLE3=White Chiristmas
TTITLE4=Jingle Bells
TTITLE5=Silent Night
TTITLE6=Ave Maria
TTITLE7=Whatevaer Happened To Chiristmas
TTITLE8=Chiristmas In Rio
TTITLE9=What A Wonderful World
TTITLE10=O Chiristmas Tree
TTITLE11=The Christmas Song
EXTD=YEAR: 200511.19
EXTT0=
EXTT1=
EXTT2=
EXTT3=
EXTT4=
EXTT5=
EXTT6=
EXTT7=
EXTT8=
EXTT9=
EXTT10=
EXTT11=
PLAYORDER=
